<svg width="175" height="77" viewBox="0 0 175 77" fill="none" xmlns="http://www.w3.org/2000/svg">
<g clip-path="url(#clip0_2_18)">
<path d="M91.55 8.22C91.37 13.88 90.19 19.02 87.92 23.92C85.04 30.12 81.99 36.25 79.49 42.61C79.12 43.54 78.19 44.81 78.93 45.45C79.76 46.17 80.73 44.9 81.53 44.37C84.71 42.28 87.81 40.09 90.98 37.98C91.83 37.41 92.79 36.99 93.72 36.55C95.02 35.95 96.01 36.58 96.94 37.44C97.87 38.3 97.71 39.24 97.25 40.26C95.65 43.76 93.69 47.09 92.34 50.72C91.87 51.98 91.56 52.96 93.49 52.89C93.85 52.88 94.32 52.91 94.35 53.42C94.38 53.8 94.02 53.95 93.73 54.1C92.41 54.76 91.06 55.36 89.59 55.56C87.18 55.89 85.8 54.26 86.6 51.99C87.73 48.75 89.56 45.83 90.95 42.71C91.26 42 92.1 41.11 91.45 40.51C90.79 39.91 89.97 40.82 89.31 41.22C84.35 44.21 80.22 48.27 75.75 51.88C74.31 53.04 72.85 54.16 71.35 55.23C70.75 55.66 69.99 56.16 69.27 55.51C68.59 54.9 69.12 54.19 69.4 53.57C76.07 39.2 82.44 24.69 88.4 10.01C88.97 8.6 89.54 7.19 90.14 5.8C90.32 5.39 90.35 4.65 90.96 4.78C91.5 4.89 91.36 5.59 91.41 6.05C91.5 6.88 91.52 7.69 91.55 8.22Z" fill="white"/>
<path d="M117.48 71.19C114.85 71.16 112.7 70.82 111.47 68.64C110.23 66.44 110.49 64.21 111.82 62.16C114.73 57.67 118.54 54.23 123.67 52.41C125.02 51.93 126.41 51.71 127.84 51.82C130.86 52.07 132.37 54.32 131.42 57.21C130.77 59.18 129.3 60.44 127.52 61.38C124.16 63.16 120.79 64.92 117.44 66.72C116.11 67.43 116.13 67.88 117.46 68.65C118.73 69.4 120.08 69.24 121.42 68.92C124.53 68.18 127.25 66.57 130.06 65.14C130.64 64.84 131.49 63.99 131.89 64.64C132.46 65.57 131.27 65.97 130.63 66.35C126.45 68.87 122.1 70.95 117.48 71.19ZM126.58 56.3C126.61 54.73 125.17 53.81 123.76 54.68C120.59 56.61 118.76 59.71 117.03 62.86C116.9 63.09 116.84 63.4 117.08 63.61C117.32 63.82 117.61 63.69 117.83 63.56C120.53 61.95 123.38 60.57 125.63 58.31C126.17 57.76 126.56 57.11 126.58 56.3Z" fill="white"/>
<path d="M55.01 55.92C52.73 55.92 50.61 55.57 49.36 53.38C48.05 51.1 48.44 48.85 49.79 46.76C52.54 42.51 56.16 39.25 60.94 37.37C62.42 36.79 63.96 36.47 65.56 36.57C68.82 36.78 70.41 39.23 69.2 42.28C68.51 44.03 67.17 45.19 65.54 46.05C62.22 47.8 58.91 49.55 55.61 51.32C55.16 51.56 54.44 51.72 54.48 52.35C54.52 53.09 55.24 53.36 55.84 53.6C57.06 54.1 58.3 53.91 59.53 53.6C62.36 52.9 64.86 51.45 67.41 50.13C67.94 49.85 68.47 49.58 69.01 49.33C69.3 49.2 69.65 49.08 69.86 49.46C70.01 49.73 69.84 49.99 69.68 50.21C69.55 50.38 69.4 50.55 69.22 50.66C64.84 53.44 60.28 55.65 55.01 55.92ZM64.47 40.94C64.41 40.26 64.15 39.66 63.52 39.34C62.56 38.84 61.68 39.23 60.94 39.81C58.37 41.83 56.61 44.5 55.03 47.3C54.85 47.61 54.63 48.03 55.01 48.34C55.31 48.59 55.63 48.36 55.91 48.2C58.31 46.82 60.74 45.46 62.88 43.69C63.73 43 64.39 42.13 64.47 40.94Z" fill="white"/>
<path d="M116.79 42.15C118.43 41.65 119.24 40.73 120.2 40.07C121.77 39 123.27 37.81 125 37C125.92 36.57 126.9 36.32 127.8 36.96C128.75 37.64 128.63 38.7 128.43 39.65C127.86 42.35 126.41 44.53 124.29 46.28C123.82 46.66 123.27 46.91 122.66 46.99C121.97 47.08 121.36 46.92 120.93 46.32C120.51 45.74 120.72 45.17 121.03 44.65C121.47 43.91 121.99 43.2 122.43 42.46C122.62 42.14 122.83 41.74 122.53 41.4C122.2 41.02 121.81 41.26 121.51 41.47C117.56 44.13 114.28 47.37 112.49 51.88C112.23 52.53 112.05 53.23 112.52 53.91C113.02 54.63 112.49 55.03 111.97 55.34C110.71 56.1 109.34 56.17 108.09 55.45C106.81 54.7 106.98 53.4 107.37 52.24C109.04 47.24 110.98 42.36 114.08 38.02C115.01 36.72 116.23 36.29 117.76 36.44C118.79 36.54 119.12 37.01 118.69 37.96C118.12 39.22 117.55 40.49 116.79 42.15Z" fill="white"/>
<path d="M134.55 64.62C134.49 61.47 134.28 58.33 133.59 55.25C133.4 54.4 133.46 53.66 134.1 52.99C135.59 51.43 136.95 51.63 137.62 53.66C138.96 57.74 139.01 61.98 138.94 66.22C138.93 66.79 138.56 67.57 139.11 67.89C139.75 68.26 140.29 67.54 140.82 67.21C143.04 65.84 145.23 64.4 146.98 62.44C148.41 60.84 148.4 60.28 147.08 58.57C145.54 56.56 146.45 53.02 148.79 52C149.96 51.49 150.69 51.98 151.01 53.13C151.51 54.97 151.4 56.81 150.63 58.55C148.32 63.75 144.47 67.51 139.48 70.17C138.51 70.69 137.51 71.09 136.4 71.16C135.2 71.24 134.53 70.76 134.54 69.49C134.56 67.87 134.55 66.25 134.55 64.62Z" fill="white"/>
<path d="M152.14 71.17C149.35 71.15 148.58 70.2 149.4 67.81C151.05 62.98 153.15 58.35 155.59 53.86C156.33 52.51 157.5 51.84 158.87 51.39C159.38 51.22 159.94 50.94 160.4 51.4C160.88 51.88 160.52 52.43 160.33 52.92C158.66 57.15 156.98 61.38 155.3 65.61C155.14 66.01 154.96 66.41 154.84 66.83C154.56 67.81 154.81 68.33 155.95 68.07C156.39 67.97 156.97 67.59 157.22 68.25C157.47 68.91 157 69.43 156.48 69.72C155.06 70.52 153.5 70.98 152.14 71.17Z" fill="white"/>
<path d="M100.51 55.87C97.66 55.87 96.91 54.93 97.68 52.59C99.29 47.74 101.39 43.1 103.88 38.64C104.45 37.61 105.23 36.81 106.39 36.45C107.09 36.23 107.83 35.58 108.52 36.19C109.25 36.83 108.64 37.63 108.38 38.29C106.96 41.93 105.5 45.55 104.05 49.17C103.75 49.93 103.43 50.68 103.17 51.45C102.86 52.39 103.11 52.96 104.23 52.81C104.7 52.75 105.28 52.46 105.46 53.15C105.62 53.75 105.19 54.22 104.72 54.48C103.29 55.27 101.75 55.79 100.51 55.87Z" fill="white"/>
<path d="M161.24 48.02C160.08 48.01 159.28 47.07 159.28 45.7C159.28 43.84 160.75 42.09 162.31 42.08C163.51 42.08 164.26 42.96 164.26 44.37C164.27 46.21 162.76 48.03 161.24 48.02Z" fill="white"/>
<path d="M106.25 30.97C106.32 28.93 107.78 27.24 109.27 27.27C110.44 27.3 111.18 28.22 111.15 29.65C111.11 31.57 109.6 33.33 108.05 33.19C106.59 33.05 106.26 31.99 106.25 30.97Z" fill="white"/>
<path d="M174.18 46.01C174.2 46.03 174.23 46.06 174.25 46.08C174.2 46.1 174.15 46.12 174.1 46.14C174.09 46.08 174.12 46.04 174.18 46.01Z" fill="white"/>
<path d="M174.1 46.14C173.48 45.6 173.08 44.88 172.83 44.15C171.28 39.63 169.15 35.36 167.3 30.97C165.5 26.71 165.46 26.71 161.21 28.55C158.26 29.82 155.43 31.34 152.66 32.94C151.68 33.51 151.29 33.31 151.35 32.17C151.39 31.36 151.34 30.54 151.36 29.73C151.38 28.9 151.16 28.43 150.18 28.48C148.61 28.55 147.03 28.54 145.45 28.48C144.51 28.45 144.21 28.82 144.22 29.72C144.26 31.94 144.17 34.17 144.26 36.39C144.3 37.51 143.89 38.16 142.95 38.74C139.45 40.91 136.01 43.17 132.55 45.38C132.27 45.56 131.94 45.76 132.06 46.12C132.23 46.61 132.66 46.47 133.01 46.35C133.93 46.04 134.85 45.71 135.77 45.41C144.15 42.69 152.54 40.02 160.88 37.22C162.2 36.78 163.06 36.84 164.05 37.79C166.98 40.61 169.94 43.41 172.98 46.12C173.61 46.68 173.94 47.25 174.1 47.92V46.14V46.14Z" fill="white"/>
<path d="M59.33 18.32C58.74 18.09 58.46 18.84 58.14 19.24C55.65 22.4 53.51 25.8 51.39 29.22C48.73 33.52 46.3 37.94 44.38 42.62C44.22 43.01 44.11 43.58 43.6 43.54C42.96 43.5 42.97 42.86 42.93 42.4C42.82 41.16 42.81 39.91 42.7 38.67C42.19 32.71 42.25 26.87 46.11 21.78C46.56 21.19 46.8 20.43 47.11 19.74C48.84 15.87 50.39 11.95 50.89 7.68C50.96 7.12 50.94 6.57 50.91 6.02C50.92 5.46 50.92 4.74 50.88 3.81C50.54 -4.74 42.88 3.81 42.88 3.81L42.95 3.83C39.75 7.28 38.53 11.55 37.91 16.08C37.22 21.05 37.46 26.04 37.63 31.03C37.67 32.22 37.4 33.24 36.75 34.25C34.78 37.32 32.7 40.3 30.29 43.03C26.76 47.01 22.87 50.53 17.63 52.15C12.19 53.83 7.63 50.71 7.42 45.07C7.22 39.37 8.59 34.12 12.15 29.52C12.85 28.61 13.97 28.05 14.52 26.76C13.37 26.92 12.62 27.45 11.93 28.04C10.86 28.96 9.82 29.91 8.86 30.95C4.32 35.85 1.82 41.45 3.31 48.3C4.19 52.36 6.88 54.79 10.98 55.47C14.66 56.08 17.84 54.89 20.86 52.98C26.96 49.11 31.83 43.97 36.15 38.26C36.64 37.62 36.94 36.75 38.02 36.36C38.23 41.24 38.45 45.94 38.63 50.65C38.69 52.13 38.84 53.57 39.39 54.95C39.61 55.5 39.88 55.9 40.61 55.61C42.31 54.94 43.78 52.93 43.66 51.01C43.46 47.98 44.47 45.38 46.07 42.9C50.19 36.51 54.26 30.1 58.39 23.72C59.15 22.54 59.61 21.31 59.69 19.93C59.69 19.36 60.01 18.58 59.33 18.32ZM42.66 21.71C42.8 17.7 43.05 13.71 43.97 9.79C44.27 8.52 44.69 7.29 45.48 6.23C45.79 5.81 46.08 5.15 46.69 5.3C47.34 5.47 47.16 6.19 47.17 6.7C47.28 11.28 46.02 15.58 44.32 19.77C43.94 20.69 43.49 21.59 43.08 22.5C42.58 22.26 42.65 21.96 42.66 21.71Z" fill="white"/>
<path d="M101.16 68.62C98.03 63.68 93.43 60.79 87.87 59.32C80.51 57.38 73.2 58.22 65.92 59.85C59.69 61.24 53.84 63.8 47.8 65.78C37.28 69.23 26.55 71.3 15.4 70.1C10.52 69.57 5.77 68.47 1.27 66.47C0.860004 66.29 0.400004 65.7 0.0600036 66.35C-0.189996 66.82 0.440004 67.02 0.780004 67.25C3.81 69.34 7.04 71.01 10.43 72.34L10 72.26C10 72.26 19.61 77.2 33.21 76.1C46.81 75 52.69 72.55 52.69 72.55L52.47 72.56C52.54 72.53 52.62 72.5 52.69 72.47C50.38 72.27 48.23 73.2 45.93 73.17C43.66 73.15 41.38 73.58 39.1 73.67C36.91 73.75 34.68 73.93 32.53 73.26C32.72 72.94 32.89 72.8 33.09 72.74C36 71.84 38.88 70.85 41.82 70.08C61.28 64.97 80.78 64.26 100.29 69.81C100.68 69.92 101.18 70.26 101.49 69.81C101.78 69.4 101.39 68.98 101.16 68.62Z" fill="white"/>
</g>
<defs>
<clipPath id="clip0_2_18">
<rect width="174.25" height="76.26" fill="white"/>
</clipPath>
</defs>
</svg>
