<svg width="25" height="24" viewBox="0 0 25 24" fill="none" xmlns="http://www.w3.org/2000/svg">
<path d="M18.2071 12.2932C18.1143 12.2003 18.0041 12.1265 17.8828 12.0762C17.7615 12.0259 17.6314 12 17.5001 12C17.3688 12 17.2387 12.0259 17.1174 12.0762C16.9961 12.1265 16.8859 12.2003 16.7931 12.2932L15.1991 13.8872C14.4601 13.6672 13.0811 13.1672 12.2071 12.2932C11.3331 11.4192 10.8331 10.0402 10.6131 9.3012L12.2071 7.7072C12.3 7.61441 12.3738 7.50421 12.4241 7.38289C12.4744 7.26158 12.5003 7.13153 12.5003 7.0002C12.5003 6.86887 12.4744 6.73882 12.4241 6.61751C12.3738 6.49619 12.3 6.38599 12.2071 6.2932L8.20709 2.2932C8.1143 2.20026 8.0041 2.12652 7.88278 2.07621C7.76147 2.0259 7.63142 2 7.50009 2C7.36876 2 7.23871 2.0259 7.1174 2.07621C6.99608 2.12652 6.88588 2.20026 6.79309 2.2932L4.08109 5.0052C3.70109 5.3852 3.48709 5.9072 3.49509 6.4402C3.51809 7.8642 3.89509 12.8102 7.79309 16.7082C11.6911 20.6062 16.6371 20.9822 18.0621 21.0062H18.0901C18.6181 21.0062 19.1171 20.7982 19.4951 20.4202L22.2071 17.7082C22.3 17.6154 22.3738 17.5052 22.4241 17.3839C22.4744 17.2626 22.5003 17.1325 22.5003 17.0012C22.5003 16.8699 22.4744 16.7398 22.4241 16.6185C22.3738 16.4972 22.3 16.387 22.2071 16.2942L18.2071 12.2932ZM18.0801 19.0052C16.8321 18.9842 12.5621 18.6492 9.20709 15.2932C5.84109 11.9272 5.51509 7.6422 5.49509 6.4192L7.50009 4.4142L10.0861 7.0002L8.79309 8.2932C8.67555 8.41065 8.58913 8.55554 8.54164 8.71477C8.49415 8.874 8.48709 9.04256 8.52109 9.2052C8.54509 9.3202 9.13209 12.0472 10.7921 13.7072C12.4521 15.3672 15.1791 15.9542 15.2941 15.9782C15.4566 16.0132 15.6254 16.0067 15.7847 15.9593C15.9441 15.9119 16.089 15.8253 16.2061 15.7072L17.5001 14.4142L20.0861 17.0002L18.0801 19.0052Z" fill="#17161E"/>
</svg>
