<svg width="16" height="16" viewBox="0 0 16 16" fill="none" xmlns="http://www.w3.org/2000/svg">
<path d="M15.6875 5.96875C14.9688 6.53125 14.0625 7.21875 10.875 9.53125C10.25 10 9.09375 11.0312 8 11.0312C6.875 11.0312 5.75 10 5.09375 9.53125C1.90625 7.21875 1 6.53125 0.28125 5.96875C0.15625 5.875 0 5.96875 0 6.125V12.5C0 13.3438 0.65625 14 1.5 14H14.5C15.3125 14 16 13.3438 16 12.5V6.125C16 5.96875 15.8125 5.875 15.6875 5.96875ZM8 10C8.71875 10.0312 9.75 9.09375 10.2812 8.71875C14.4375 5.71875 14.75 5.4375 15.6875 4.6875C15.875 4.5625 16 4.34375 16 4.09375V3.5C16 2.6875 15.3125 2 14.5 2H1.5C0.65625 2 0 2.6875 0 3.5V4.09375C0 4.34375 0.09375 4.5625 0.28125 4.6875C1.21875 5.4375 1.53125 5.71875 5.6875 8.71875C6.21875 9.09375 7.25 10.0312 8 10Z" fill="white"/>
</svg>
