<svg width="16" height="13" viewBox="0 0 16 13" fill="none" xmlns="http://www.w3.org/2000/svg">
<path d="M15.6875 4.46875C14.9688 5.03125 14.0625 5.71875 10.875 8.03125C10.25 8.5 9.09375 9.53125 8 9.53125C6.875 9.53125 5.75 8.5 5.09375 8.03125C1.90625 5.71875 1 5.03125 0.28125 4.46875C0.15625 4.375 0 4.46875 0 4.625V11C0 11.8438 0.65625 12.5 1.5 12.5H14.5C15.3125 12.5 16 11.8438 16 11V4.625C16 4.46875 15.8125 4.375 15.6875 4.46875ZM8 8.5C8.71875 8.53125 9.75 7.59375 10.2812 7.21875C14.4375 4.21875 14.75 3.9375 15.6875 3.1875C15.875 3.0625 16 2.84375 16 2.59375V2C16 1.1875 15.3125 0.5 14.5 0.5H1.5C0.65625 0.5 0 1.1875 0 2V2.59375C0 2.84375 0.09375 3.0625 0.28125 3.1875C1.21875 3.9375 1.53125 4.21875 5.6875 7.21875C6.21875 7.59375 7.25 8.53125 8 8.5Z" fill="#333333"/>
</svg>
