<svg width="20" height="18" viewBox="0 0 20 18" fill="none" xmlns="http://www.w3.org/2000/svg">
<path d="M19.9957 5.12826C19.9957 5.1261 19.9959 5.12393 19.9959 5.12177C19.9959 2.49235 17.8644 0.36084 15.235 0.36084C12.6056 0.36084 10.4741 2.49231 10.4741 5.12177C10.4741 7.75123 12.6058 9.8827 15.235 9.8827C15.7754 9.8827 16.2927 9.78849 16.7767 9.62252C15.7056 15.7673 10.9138 19.73 15.3557 16.4686C20.2812 12.852 20.0012 5.26703 19.9957 5.12826Z" fill="url(#paint0_linear_380_473)"/>
<path d="M4.76093 9.88266C5.30131 9.88266 5.81859 9.78846 6.30284 9.62248C5.23144 15.7672 0.439686 19.73 4.88162 16.4685C9.80706 12.852 9.52713 5.26703 9.52158 5.12826C9.52158 5.1261 9.52181 5.12393 9.52181 5.12177C9.52181 2.49235 7.39034 0.36084 4.76093 0.36084C2.13147 0.36084 0 2.49231 0 5.12177C0 7.75123 2.13171 9.88266 4.76093 9.88266Z" fill="url(#paint1_linear_380_473)"/>
<defs>
<linearGradient id="paint0_linear_380_473" x1="10.4741" y1="9.79465" x2="20.0026" y2="9.76487" gradientUnits="userSpaceOnUse">
<stop stop-color="#034D71"/>
<stop offset="1" stop-color="#009F5E"/>
</linearGradient>
<linearGradient id="paint1_linear_380_473" x1="5.11228e-10" y1="9.79463" x2="9.52847" y2="9.76485" gradientUnits="userSpaceOnUse">
<stop stop-color="#034D71"/>
<stop offset="1" stop-color="#009F5E"/>
</linearGradient>
</defs>
</svg>
