<svg width="15" height="26" viewBox="0 0 15 26" fill="none" xmlns="http://www.w3.org/2000/svg">
<path d="M0.43934 3.06066C-0.146446 2.47487 -0.146446 1.52513 0.43934 0.93934C1.02513 0.353553 1.97487 0.353553 2.56066 0.93934L0.43934 3.06066ZM12.5 13L13.5607 11.9393L14.6213 13L13.5607 14.0607L12.5 13ZM2.56066 25.0607C1.97487 25.6464 1.02513 25.6464 0.43934 25.0607C-0.146446 24.4749 -0.146446 23.5251 0.43934 22.9393L2.56066 25.0607ZM2.56066 0.93934L13.5607 11.9393L11.4393 14.0607L0.43934 3.06066L2.56066 0.93934ZM13.5607 14.0607L2.56066 25.0607L0.43934 22.9393L11.4393 11.9393L13.5607 14.0607Z" fill="url(#paint0_linear_403_409)"/>
<defs>
<linearGradient id="paint0_linear_403_409" x1="12.5" y1="14.0119" x2="1.49722" y2="13.9807" gradientUnits="userSpaceOnUse">
<stop stop-color="#034D71"/>
<stop offset="1" stop-color="#009F5E"/>
</linearGradient>
</defs>
</svg>
