<svg width="15" height="26" viewBox="0 0 15 26" fill="none" xmlns="http://www.w3.org/2000/svg">
<path d="M14.5607 3.06066C15.1464 2.47487 15.1464 1.52513 14.5607 0.93934C13.9749 0.353553 13.0251 0.353553 12.4393 0.93934L14.5607 3.06066ZM2.5 13L1.43934 11.9393L0.37868 13L1.43934 14.0607L2.5 13ZM12.4393 25.0607C13.0251 25.6464 13.9749 25.6464 14.5607 25.0607C15.1464 24.4749 15.1464 23.5251 14.5607 22.9393L12.4393 25.0607ZM12.4393 0.93934L1.43934 11.9393L3.56066 14.0607L14.5607 3.06066L12.4393 0.93934ZM1.43934 14.0607L12.4393 25.0607L14.5607 22.9393L3.56066 11.9393L1.43934 14.0607Z" fill="url(#paint0_linear_403_411)"/>
<defs>
<linearGradient id="paint0_linear_403_411" x1="2.5" y1="14.0119" x2="13.5028" y2="13.9807" gradientUnits="userSpaceOnUse">
<stop stop-color="#034D71"/>
<stop offset="1" stop-color="#009F5E"/>
</linearGradient>
</defs>
</svg>
