<svg width="34" height="24" viewBox="0 0 34 24" fill="none" xmlns="http://www.w3.org/2000/svg">
<path d="M1.5 12L0.792894 12.7071L0.0857874 12L0.792894 11.2929L1.5 12ZM32.5 11C33.0523 11 33.5 11.4478 33.5 12C33.5 12.5523 33.0523 13 32.5 13L32.5 11ZM11.1262 23.0405L0.792894 12.7071L2.20711 11.2929L12.5404 21.6263L11.1262 23.0405ZM0.792894 11.2929L11.1262 0.9596L12.5404 2.37381L2.20711 12.7071L0.792894 11.2929ZM1.5 11L32.5 11L32.5 13L1.5 13L1.5 11Z" fill="url(#paint0_linear_4_10)"/>
<defs>
<linearGradient id="paint0_linear_4_10" x1="1.5" y1="11.0495" x2="32.5058" y2="11.3131" gradientUnits="userSpaceOnUse">
<stop stop-color="#034D71"/>
<stop offset="1" stop-color="#009F5E"/>
</linearGradient>
</defs>
</svg>
