<svg width="16" height="16" viewBox="0 0 16 16" fill="none" xmlns="http://www.w3.org/2000/svg">
<path d="M15.5616 11.3033L12.0548 9.80039C11.9609 9.76908 11.8356 9.73777 11.7417 9.73777C11.5538 9.73777 11.3033 9.86301 11.1781 10.0196L9.61252 11.9295C7.54599 10.9276 5.0411 8.45401 4.07045 6.38748L5.98043 4.82192C6.13699 4.69667 6.26223 4.44618 6.26223 4.22701C6.26223 4.16438 6.23092 4.03914 6.19961 3.94521L4.69667 0.438356C4.57143 0.187867 4.25832 0 3.97652 0C3.94521 0 3.88258 0 3.81996 0L0.563601 0.751468C0.250489 0.81409 0 1.15851 0 1.47162C0 9.51859 6.48141 16 14.5284 16C14.8415 16 15.1859 15.7495 15.2485 15.4364L16 12.18C16 12.1174 16 12.0548 16 12.0235C16 11.7417 15.8121 11.4286 15.5616 11.3033Z" fill="white"/>
</svg>
