<svg width="17" height="14" viewBox="0 0 17 14" fill="none" xmlns="http://www.w3.org/2000/svg">
<path d="M15.2148 3.75C15.8398 3.28125 16.4023 2.71875 16.8398 2.0625C16.2773 2.3125 15.6211 2.5 14.9648 2.5625C15.6523 2.15625 16.1523 1.53125 16.4023 0.75C15.7773 1.125 15.0586 1.40625 14.3398 1.5625C13.7148 0.90625 12.8711 0.53125 11.9336 0.53125C10.1211 0.53125 8.65234 2 8.65234 3.8125C8.65234 4.0625 8.68359 4.3125 8.74609 4.5625C6.02734 4.40625 3.58984 3.09375 1.96484 1.125C1.68359 1.59375 1.52734 2.15625 1.52734 2.78125C1.52734 3.90625 2.08984 4.90625 2.99609 5.5C2.46484 5.46875 1.93359 5.34375 1.49609 5.09375V5.125C1.49609 6.71875 2.62109 8.03125 4.12109 8.34375C3.87109 8.40625 3.55859 8.46875 3.27734 8.46875C3.05859 8.46875 2.87109 8.4375 2.65234 8.40625C3.05859 9.71875 4.27734 10.6562 5.71484 10.6875C4.58984 11.5625 3.18359 12.0938 1.65234 12.0938C1.37109 12.0938 1.12109 12.0625 0.871094 12.0312C2.30859 12.9688 4.02734 13.5 5.90234 13.5C11.9336 13.5 15.2148 8.53125 15.2148 4.1875C15.2148 4.03125 15.2148 3.90625 15.2148 3.75Z" fill="white"/>
</svg>
