<svg width="17" height="12" viewBox="0 0 17 12" fill="none" xmlns="http://www.w3.org/2000/svg">
<path d="M16.4723 1.76024C16.2883 1.06737 15.7461 0.521689 15.0577 0.336503C13.81 0 8.80664 0 8.80664 0C8.80664 0 3.80333 0 2.55554 0.336503C1.86716 0.521718 1.32499 1.06737 1.14098 1.76024C0.806641 3.01611 0.806641 5.63636 0.806641 5.63636C0.806641 5.63636 0.806641 8.25661 1.14098 9.51248C1.32499 10.2053 1.86716 10.7283 2.55554 10.9135C3.80333 11.25 8.80664 11.25 8.80664 11.25C8.80664 11.25 13.81 11.25 15.0577 10.9135C15.7461 10.7283 16.2883 10.2053 16.4723 9.51248C16.8066 8.25661 16.8066 5.63636 16.8066 5.63636C16.8066 5.63636 16.8066 3.01611 16.4723 1.76024ZM7.17027 8.01535V3.25737L11.3521 5.63642L7.17027 8.01535Z" fill="white"/>
</svg>
